<svg xmlns="http://www.w3.org/2000/svg" width="1280" height="700">
<rect width="100%" height="100%" fill="white"/>
<text x="640.0" y="32" text-anchor="middle" font-size="24" font-family="Arial">IPC by Trace</text>
<text x="20" y="317.5" transform="rotate(-90 20,317.5)" text-anchor="middle" font-size="14" font-family="Arial">IPC</text>
<line x1="95" y1="70" x2="95" y2="565" stroke="black"/>
<line x1="95" y1="565" x2="1240" y2="565" stroke="black"/>
<line x1="90" y1="565.0" x2="95" y2="565.0" stroke="black"/>
<text x="85" y="569.0" text-anchor="end" font-size="12" font-family="Arial">0.00</text>
<line x1="95" y1="565.0" x2="1240" y2="565.0" stroke="#eeeeee"/>
<line x1="90" y1="466.0" x2="95" y2="466.0" stroke="black"/>
<text x="85" y="470.0" text-anchor="end" font-size="12" font-family="Arial">0.29</text>
<line x1="95" y1="466.0" x2="1240" y2="466.0" stroke="#eeeeee"/>
<line x1="90" y1="367.0" x2="95" y2="367.0" stroke="black"/>
<text x="85" y="371.0" text-anchor="end" font-size="12" font-family="Arial">0.58</text>
<line x1="95" y1="367.0" x2="1240" y2="367.0" stroke="#eeeeee"/>
<line x1="90" y1="268.0" x2="95" y2="268.0" stroke="black"/>
<text x="85" y="272.0" text-anchor="end" font-size="12" font-family="Arial">0.87</text>
<line x1="95" y1="268.0" x2="1240" y2="268.0" stroke="#eeeeee"/>
<line x1="90" y1="169.0" x2="95" y2="169.0" stroke="black"/>
<text x="85" y="173.0" text-anchor="end" font-size="12" font-family="Arial">1.16</text>
<line x1="95" y1="169.0" x2="1240" y2="169.0" stroke="#eeeeee"/>
<line x1="90" y1="70.0" x2="95" y2="70.0" stroke="black"/>
<text x="85" y="74.0" text-anchor="end" font-size="12" font-family="Arial">1.44</text>
<line x1="95" y1="70.0" x2="1240" y2="70.0" stroke="#eeeeee"/>
<rect x="131.6" y="379.0" width="38.9" height="186.0" fill="#888888"/>
<text x="150.9" y="374.0" text-anchor="middle" font-size="10" font-family="Arial">0.543</text>
<rect x="177.4" y="70.0" width="38.9" height="495.0" fill="#4C78A8"/>
<text x="196.7" y="65.0" text-anchor="middle" font-size="10" font-family="Arial">1.444</text>
<rect x="223.2" y="319.0" width="38.9" height="246.0" fill="#F58518"/>
<text x="242.5" y="314.0" text-anchor="middle" font-size="10" font-family="Arial">0.718</text>
<text x="209.5" y="600" text-anchor="middle" font-size="12" font-family="Arial">602.gcc_s-734B</text>
<rect x="360.6" y="416.1" width="38.9" height="148.9" fill="#888888"/>
<text x="379.9" y="411.1" text-anchor="middle" font-size="10" font-family="Arial">0.434</text>
<rect x="406.4" y="391.0" width="38.9" height="174.0" fill="#4C78A8"/>
<text x="425.7" y="386.0" text-anchor="middle" font-size="10" font-family="Arial">0.508</text>
<rect x="452.2" y="408.4" width="38.9" height="156.6" fill="#F58518"/>
<text x="471.5" y="403.4" text-anchor="middle" font-size="10" font-family="Arial">0.457</text>
<text x="438.5" y="600" text-anchor="middle" font-size="12" font-family="Arial">619.lbm_s-4268B</text>
<rect x="589.6" y="501.9" width="38.9" height="63.1" fill="#888888"/>
<text x="608.9" y="496.9" text-anchor="middle" font-size="10" font-family="Arial">0.184</text>
<rect x="635.4" y="500.8" width="38.9" height="64.2" fill="#4C78A8"/>
<text x="654.7" y="495.8" text-anchor="middle" font-size="10" font-family="Arial">0.187</text>
<rect x="681.2" y="502.0" width="38.9" height="63.0" fill="#F58518"/>
<text x="700.5" y="497.0" text-anchor="middle" font-size="10" font-family="Arial">0.184</text>
<text x="667.5" y="600" text-anchor="middle" font-size="12" font-family="Arial">605.mcf_s-994B</text>
<rect x="818.6" y="456.8" width="38.9" height="108.2" fill="#888888"/>
<text x="837.9" y="451.8" text-anchor="middle" font-size="10" font-family="Arial">0.316</text>
<rect x="864.4" y="455.9" width="38.9" height="109.1" fill="#4C78A8"/>
<text x="883.7" y="450.9" text-anchor="middle" font-size="10" font-family="Arial">0.318</text>
<rect x="910.2" y="456.7" width="38.9" height="108.3" fill="#F58518"/>
<text x="929.5" y="451.7" text-anchor="middle" font-size="10" font-family="Arial">0.316</text>
<text x="896.5" y="600" text-anchor="middle" font-size="12" font-family="Arial">620.omnetpp_s-874B</text>
<rect x="1047.6" y="192.0" width="38.9" height="373.0" fill="#888888"/>
<text x="1066.9" y="187.0" text-anchor="middle" font-size="10" font-family="Arial">1.088</text>
<rect x="1093.4" y="191.4" width="38.9" height="373.6" fill="#4C78A8"/>
<text x="1112.7" y="186.4" text-anchor="middle" font-size="10" font-family="Arial">1.090</text>
<rect x="1139.2" y="191.7" width="38.9" height="373.3" fill="#F58518"/>
<text x="1158.5" y="186.7" text-anchor="middle" font-size="10" font-family="Arial">1.089</text>
<text x="1125.5" y="600" text-anchor="middle" font-size="12" font-family="Arial">623.xalancbmk_s-700B</text>
<rect x="920" y="70" width="16" height="16" fill="#888888"/>
<text x="944" y="83" font-size="13" font-family="Arial">No prefetch</text>
<rect x="920" y="94" width="16" height="16" fill="#4C78A8"/>
<text x="944" y="107" font-size="13" font-family="Arial">SPP</text>
<rect x="920" y="118" width="16" height="16" fill="#F58518"/>
<text x="944" y="131" font-size="13" font-family="Arial">Best LSTM</text>
</svg>